<?xml version="1.0" standalone="no"?>
<!DOCTYPE svg PUBLIC "-//W3C//DTD SVG 20010904//EN"
 "http://www.w3.org/TR/2001/REC-SVG-20010904/DTD/svg10.dtd">
<svg version="1.0" xmlns="http://www.w3.org/2000/svg"
 width="401.000000pt" height="432.000000pt" viewBox="0 0 401.000000 432.000000"
 preserveAspectRatio="xMidYMid meet">

<g transform="translate(0.000000,432.000000) scale(0.100000,-0.100000)"
fill="#000000" stroke="none">
<path d="M3193 3742 c-24 -4 -39 -31 -20 -36 71 -20 97 -31 94 -40 -2 -6 -14
-10 -26 -9 -23 3 -28 -16 -8 -36 10 -11 9 -13 -6 -7 -26 9 -41 -2 -26 -20 9
-11 8 -14 -3 -14 -15 0 -48 -30 -48 -43 0 -4 14 -7 32 -7 21 0 41 9 60 27 28
26 28 26 28 4 0 -30 -43 -71 -75 -71 -14 0 -24 3 -21 8 2 4 -12 6 -32 4 -21
-2 -58 3 -84 11 -27 8 -45 11 -42 6 3 -5 -6 -9 -19 -9 -20 0 -24 4 -20 19 3
10 16 21 29 24 13 2 21 1 19 -3 -3 -4 6 -10 20 -12 32 -7 32 5 0 26 -19 13
-30 14 -45 6 -28 -15 -25 -2 6 26 25 24 68 32 78 15 3 -5 -1 -14 -9 -21 -8 -7
-15 -16 -15 -21 0 -16 50 2 74 26 12 12 29 24 37 27 8 3 11 9 7 13 -7 7 -26 0
-69 -22 -11 -6 -51 36 -44 46 16 27 -19 7 -57 -33 -52 -53 -79 -68 -99 -55
-10 6 -10 9 -1 9 6 0 12 7 12 16 0 13 -3 14 -15 4 -9 -7 -12 -22 -9 -39 6 -26
4 -27 -30 -25 -30 3 -42 -3 -71 -33 -20 -20 -35 -46 -35 -60 0 -12 -5 -23 -10
-23 -15 0 -120 -79 -120 -89 0 -5 -13 -14 -30 -19 -16 -6 -45 -26 -64 -45 -48
-48 -94 -79 -100 -68 -4 6 -18 6 -39 0 -17 -5 -49 -9 -69 -9 -21 0 -38 -4 -38
-9 0 -5 -8 -7 -18 -4 -14 3 -25 -8 -45 -45 -34 -62 -34 -72 -2 -42 31 29 44
20 21 -15 -9 -14 -14 -30 -11 -35 3 -5 1 -18 -5 -29 -5 -11 -11 -54 -13 -95
-2 -75 -2 -76 27 -88 16 -6 42 -23 58 -36 32 -27 51 -23 25 6 -20 22 -22 49
-4 55 7 2 8 8 3 13 -5 5 -11 4 -13 -3 -7 -18 -27 -16 -46 5 -19 21 -22 42 -7
42 6 0 10 -8 10 -17 0 -12 3 -14 11 -6 11 11 -7 53 -23 53 -5 0 -8 8 -8 18 1
12 9 8 31 -18 16 -19 27 -40 24 -47 -2 -7 0 -13 6 -13 6 0 15 13 21 28 6 15
28 40 48 55 55 39 61 33 11 -9 -37 -32 -42 -41 -40 -73 5 -64 39 -86 39 -25 0
31 8 44 60 94 l61 59 -7 50 c-7 56 9 73 20 20 10 -53 7 -96 -9 -109 -17 -14
-21 -115 -5 -140 7 -11 10 -4 10 26 0 48 47 126 89 149 26 14 26 14 3 15 -32
0 -24 20 19 45 29 17 34 25 33 55 -1 19 -4 45 -8 58 -5 16 -3 22 7 22 20 0 29
27 12 34 -9 3 -12 12 -8 23 9 26 34 53 44 47 12 -7 60 7 54 16 -6 10 24 24 46
21 8 -1 29 5 45 14 16 8 34 15 40 15 6 0 10 10 10 23 -1 19 4 22 32 19 17 -1
32 2 32 8 0 5 7 10 15 10 20 0 19 17 -1 28 -15 8 -15 10 0 15 10 4 19 1 22 -7
3 -8 21 -17 40 -21 35 -6 38 -25 5 -25 -10 0 -21 -9 -24 -19 -3 -11 -20 -29
-38 -40 -44 -27 -20 -27 31 -1 43 22 76 25 114 10 39 -15 31 -26 -15 -22 -29
3 -55 -2 -85 -18 -50 -25 -59 -45 -15 -35 34 7 55 -13 22 -22 -12 -3 -21 -10
-21 -16 0 -6 23 -8 63 -5 l62 6 -35 -16 c-23 -11 -64 -16 -117 -17 -46 0 -83
-3 -83 -6 0 -4 20 -12 45 -19 42 -12 74 -10 120 5 11 4 3 -5 -18 -19 -20 -15
-41 -24 -46 -21 -6 3 -12 1 -16 -5 -3 -5 0 -10 7 -10 7 0 -3 -8 -22 -18 l-35
-17 62 -3 c38 -2 75 3 97 12 40 17 47 9 13 -15 -44 -31 -107 -50 -127 -39 -14
7 -20 7 -20 0 0 -5 -8 -10 -18 -10 -19 0 -57 -38 -48 -48 3 -3 17 5 31 18 32
30 41 21 21 -19 -16 -29 -46 -52 -74 -57 -31 -5 -22 -14 14 -14 22 0 50 7 62
16 33 23 26 0 -9 -30 -17 -14 -48 -29 -70 -32 -23 -4 -36 -11 -32 -15 8 -8 70
5 128 25 13 5 9 -2 -12 -21 -18 -16 -33 -35 -33 -43 0 -10 -17 -11 -77 -6 -84
8 -95 12 -73 26 13 8 12 10 -2 10 -10 0 -36 -16 -58 -37 -39 -35 -41 -35 -47
-15 -7 29 -19 28 -36 -4 -12 -23 -15 -24 -26 -10 -21 26 -26 100 -8 135 22 45
2 38 -28 -9 -27 -43 -31 -79 -14 -128 9 -25 7 -36 -8 -58 -18 -28 -18 -28 -21
-5 -2 15 -8 21 -18 17 -9 -3 -14 1 -14 12 0 27 -29 62 -45 56 -8 -4 -15 -1
-15 6 0 6 -5 8 -11 5 -6 -4 0 -19 15 -40 46 -60 34 -95 -74 -214 -38 -43 -70
-81 -70 -84 0 -4 16 4 35 18 20 13 52 29 71 35 20 7 48 18 62 26 15 8 32 14
38 14 6 0 18 7 25 17 13 15 11 16 -14 9 -32 -8 -30 0 15 53 34 40 42 39 35 -4
-5 -28 -2 -35 10 -35 9 0 25 8 36 18 20 17 20 16 14 -41 l-6 -59 37 7 c44 9
94 7 105 -4 9 -9 -27 -35 -70 -52 -69 -26 38 -31 112 -5 29 11 -43 -51 -77
-67 -39 -17 -35 -27 12 -27 l41 0 -21 -22 -21 -23 30 -3 c35 -4 41 -21 11 -29
-37 -10 -21 -20 25 -17 44 4 83 -12 183 -73 23 -14 23 -15 5 -28 -10 -8 -28
-15 -41 -15 -34 0 -18 -17 24 -25 40 -7 101 -42 124 -71 14 -16 13 -17 -3 -11
-11 4 -31 10 -45 13 l-27 7 21 -24 c34 -38 46 -68 39 -98 -4 -21 -2 -30 10
-35 11 -4 14 -12 10 -26 -4 -11 -2 -20 4 -20 6 0 11 -5 11 -11 0 -8 -5 -8 -15
1 -8 7 -21 10 -29 7 -15 -6 -43 11 -99 60 -63 56 -69 37 -7 -23 36 -34 57 -61
53 -70 -3 -8 0 -14 6 -14 7 0 11 -21 11 -52 l0 -52 -29 46 c-16 25 -41 54 -56
64 -79 56 -125 96 -125 109 0 8 -24 28 -52 45 -47 27 -59 30 -108 25 -30 -3
-81 -15 -113 -26 -63 -21 -77 -23 -77 -11 0 12 75 52 98 52 11 0 35 7 55 15
40 17 151 14 185 -4 26 -14 29 -4 5 15 -16 12 -15 14 15 20 19 4 32 13 32 22
0 8 8 22 18 31 9 9 17 27 17 40 0 20 -5 24 -40 26 -21 1 -41 7 -43 14 -2 6
-10 11 -18 11 -8 0 -14 7 -14 15 0 19 -2 19 -45 -5 -20 -11 -40 -18 -45 -15
-4 2 -13 -2 -20 -10 -16 -19 -30 -19 -30 0 0 25 -109 15 -146 -13 -26 -19 -27
-21 -8 -22 12 0 41 7 64 15 23 8 49 15 57 15 14 0 14 -3 0 -22 -8 -13 -21 -22
-27 -20 -7 1 -19 -5 -26 -15 -13 -17 -14 -17 -8 0 9 25 -1 21 -61 -23 -30 -22
-57 -40 -61 -40 -3 0 -22 -13 -41 -30 -18 -16 -38 -30 -42 -30 -14 0 -22 -31
-12 -44 9 -11 -22 -115 -50 -167 -5 -10 -6 -19 -2 -19 4 0 8 -29 9 -65 0 -46
-3 -64 -12 -61 -11 4 -22 -55 -25 -134 l-1 -35 -14 45 c-14 47 -65 100 -96
100 -21 0 -48 37 -48 66 0 12 13 55 30 95 32 78 36 109 20 137 -6 9 -23 47
-40 85 -16 37 -33 67 -38 67 -5 0 -17 -9 -27 -20 -21 -23 -73 -27 -81 -6 -3 8
-14 16 -25 19 -15 4 -23 -1 -31 -21 -6 -15 -18 -45 -28 -67 -42 -95 -44 -103
-27 -143 9 -20 25 -62 36 -94 26 -72 15 -98 -51 -126 -42 -18 -52 -28 -73 -74
l-24 -53 -2 45 c-2 25 -2 62 -1 84 2 30 0 37 -12 33 -12 -5 -14 6 -12 65 2 46
-1 80 -10 97 -8 14 -14 32 -14 38 0 7 -10 34 -22 59 -17 35 -20 48 -10 51 29
11 8 34 -93 103 -13 8 -44 30 -69 48 -40 28 -49 32 -63 21 -16 -14 -23 -9 -65
52 -14 19 -17 21 -17 7 -1 -22 -14 -23 -31 -4 -6 8 -17 13 -24 10 -7 -3 -19 2
-26 11 -13 16 -60 21 -60 7 0 -14 -71 -43 -90 -37 -20 6 -36 -10 -21 -20 6 -3
7 -13 4 -22 -5 -13 -2 -15 13 -9 15 6 17 5 7 -5 -18 -18 -16 -30 2 -23 21 8
19 -12 -2 -22 -14 -6 -10 -9 17 -13 26 -5 35 -11 33 -24 -1 -14 3 -16 15 -11
31 14 137 12 192 -3 73 -20 140 -50 140 -64 0 -6 -7 -8 -16 -5 -9 3 -28 9 -42
12 -15 3 -34 8 -42 11 -8 4 -19 7 -25 7 -5 1 -33 5 -61 10 -50 7 -63 4 -138
-41 -4 -3 -2 -10 5 -15 10 -6 7 -7 -9 -3 -17 5 -22 3 -20 -7 3 -15 -62 -78
-80 -78 -10 0 -71 -61 -109 -109 l-19 -23 1 43 c1 24 3 50 3 57 3 22 104 122
123 122 11 0 19 5 19 10 0 13 -4 13 -45 -4 -19 -8 -35 -19 -35 -24 0 -17 -92
-73 -111 -67 -11 4 -19 2 -19 -4 0 -6 -5 -11 -12 -11 -9 0 -9 3 0 12 18 18 14
28 -10 28 -20 1 -19 3 8 14 28 12 32 19 36 65 4 36 13 60 29 78 22 24 22 26 4
21 -11 -3 -28 -9 -39 -13 -14 -6 -18 -4 -14 6 7 22 78 66 128 80 32 9 39 13
25 17 -11 2 -26 9 -32 14 -7 6 -20 8 -28 4 -34 -13 -10 5 69 54 75 45 89 50
124 44 25 -4 42 -2 46 5 4 6 1 11 -7 11 -8 0 -21 7 -28 16 -12 15 -11 16 8 10
12 -4 24 -2 27 3 4 6 14 7 24 4 16 -6 16 -5 -1 14 -23 26 -22 33 8 33 36 0 31
11 -19 43 -24 15 -50 35 -58 44 -11 15 -11 16 7 9 30 -13 108 -24 123 -18 9 3
-3 16 -32 35 -25 16 -46 33 -46 38 0 13 59 16 113 5 l27 -6 -7 57 -6 56 24
-16 c37 -26 53 -22 46 12 -10 46 3 44 54 -11 53 -57 57 -63 33 -54 -8 3 -13 2
-10 -2 8 -13 156 -75 163 -68 3 3 -17 29 -45 58 -29 29 -52 47 -52 40 0 -6 -5
-12 -11 -12 -8 0 -8 4 1 15 10 11 9 18 -4 30 -28 28 -37 83 -20 123 11 27 12
38 3 46 -9 8 -10 7 -6 -6 4 -10 -1 -18 -14 -21 -16 -4 -18 -12 -14 -57 3 -28
9 -60 15 -70 16 -30 12 -35 -8 -9 -18 22 -21 36 -23 81 0 11 -6 15 -15 11 -9
-3 -12 -13 -9 -27 6 -19 4 -19 -14 4 -17 22 -19 35 -15 100 6 73 5 76 -25 110
l-30 35 13 -45 c10 -34 11 -55 2 -89 -10 -42 -36 -69 -36 -38 0 8 -6 20 -14
26 -11 10 -16 8 -24 -5 -9 -16 -14 -14 -53 14 -45 34 -70 42 -49 17 11 -13 8
-15 -16 -16 -16 -1 -50 -3 -76 -5 -43 -4 -50 -1 -83 31 -19 20 -35 38 -35 40
0 2 15 -2 32 -9 49 -20 105 -28 113 -16 4 6 -7 10 -27 10 -34 1 -108 44 -116
69 -4 11 1 10 19 -2 14 -10 42 -17 69 -16 38 1 41 2 19 9 -51 15 -77 40 -88
85 -10 41 -13 44 -30 33 -16 -10 -30 -6 -85 21 -36 18 -66 36 -66 42 0 12 14
11 27 -2 7 -7 47 -14 90 -16 75 -5 77 -4 55 12 -12 9 -20 21 -17 26 4 5 -4 9
-17 9 -13 0 -36 12 -53 26 -22 18 -24 24 -10 19 44 -15 85 -17 119 -5 60 19
49 26 -47 25 -70 0 -98 4 -116 17 -22 16 -21 16 38 11 63 -6 86 9 34 22 -21 5
-24 8 -13 15 8 5 25 7 37 3 38 -9 26 15 -19 38 -31 16 -53 20 -86 16 -41 -4
-43 -4 -28 12 22 21 104 20 136 -2 14 -9 34 -17 45 -17 15 0 12 4 -12 16 -18
9 -35 25 -38 35 -4 11 -21 25 -38 33 l-32 13 35 8 c19 4 40 14 46 23 6 9 16
12 24 7 10 -6 9 -10 -5 -17 -15 -9 -15 -11 3 -28 12 -11 32 -18 53 -17 27 2
34 -2 34 -18 0 -11 10 -24 23 -30 12 -5 22 -13 22 -16 0 -3 16 -5 35 -3 19 1
37 -2 41 -7 3 -5 10 -7 15 -4 5 4 9 2 9 -4 0 -5 -6 -11 -12 -13 -7 -3 9 -10
35 -16 35 -9 51 -19 59 -38 10 -20 9 -27 -3 -35 -12 -8 -12 -11 3 -22 13 -11
15 -24 11 -74 -5 -60 -5 -60 23 -67 46 -12 75 -46 39 -46 -22 0 -19 -8 14 -36
39 -33 71 -101 65 -139 l-5 -30 14 25 c20 35 16 119 -6 131 -17 10 -17 39 -1
113 5 24 8 26 15 13 6 -9 5 -26 -2 -43 -13 -36 2 -67 47 -95 41 -25 65 -62 67
-105 2 -42 12 -43 33 -2 15 30 15 34 0 63 -9 16 -30 39 -46 50 -37 25 -33 30
7 10 35 -17 53 -36 70 -74 9 -20 12 -22 12 -7 1 12 6 16 15 13 10 -4 13 -1 10
7 -3 7 2 19 11 26 13 11 14 10 9 -4 -3 -9 -1 -16 5 -16 15 0 14 -47 -1 -56 -6
-4 -14 -2 -16 4 -2 7 -8 12 -14 12 -6 0 -6 -6 2 -15 10 -12 6 -22 -24 -56 -38
-45 -42 -65 -6 -31 21 20 69 46 104 57 18 5 18 6 1 19 -16 12 -17 18 -6 60 6
25 8 58 5 71 -6 24 -7 24 -20 8 -12 -16 -12 -13 -3 16 10 27 9 40 -5 67 -23
49 -20 52 14 19 32 -31 38 -25 15 15 -8 14 -14 31 -15 39 0 20 24 -2 63 -58
30 -44 32 -50 33 -154 0 -59 4 -110 7 -113 13 -13 25 8 30 52 7 66 27 81 27
20 0 -44 2 -47 21 -41 18 6 17 1 -13 -47 -52 -82 -54 -85 -27 -63 13 11 28 26
32 33 13 20 24 14 31 -20 5 -28 8 -30 19 -15 11 16 19 10 83 -50 78 -75 118
-132 108 -157 -4 -12 -2 -15 9 -10 8 3 17 21 19 40 4 36 -5 54 -62 118 -14 15
-25 33 -25 39 0 7 -17 34 -38 61 -28 37 -34 52 -25 57 8 5 12 26 11 54 -2 48
16 75 19 28 2 -36 6 -67 8 -73 1 -3 3 -14 5 -24 2 -10 27 -43 55 -71 32 -32
48 -55 41 -59 -6 -4 -16 -4 -23 0 -7 5 -8 3 -3 -5 4 -7 15 -11 24 -8 14 3 17
-1 13 -20 -3 -18 1 -26 16 -30 13 -3 19 -10 15 -19 -3 -8 0 -14 5 -14 7 0 9
-14 5 -35 -3 -19 -2 -35 3 -35 13 0 95 67 116 93 10 12 18 31 18 42 0 12 5 26
12 33 9 9 9 12 -1 12 -7 0 -11 6 -8 14 5 12 -24 46 -39 46 -3 0 -3 -13 1 -30
5 -23 3 -30 -9 -30 -9 0 -16 -6 -16 -14 0 -9 -9 -14 -20 -13 -15 1 -18 6 -14
20 4 12 -3 28 -18 44 -24 26 -78 59 -90 55 -4 -1 -19 15 -32 36 -22 33 -25 47
-23 117 3 86 13 111 80 182 17 18 28 35 25 39 -7 6 -208 -12 -240 -22 -10 -3
-18 -1 -18 4 0 10 -60 10 -77 -1 -16 -10 -88 9 -131 34 -21 12 -46 17 -72 15
-22 -2 -43 0 -46 5 -2 4 -17 8 -32 9 -15 0 -40 1 -57 1 -16 0 -39 6 -50 12
-11 6 -25 12 -32 13 -6 1 -31 22 -55 45 -24 24 -57 55 -73 69 -17 14 -46 44
-64 67 -18 23 -43 43 -55 45 -11 2 -21 9 -21 16 0 22 -45 61 -63 56 -13 -5
-14 -4 -4 4 10 7 6 15 -18 36 -38 31 -54 33 -45 6 11 -33 -24 -24 -61 17 -19
20 -34 45 -34 55 0 10 -8 21 -17 24 -10 4 -32 12 -50 20 -17 8 -53 13 -80 12
-45 -1 -46 -2 -9 -5 51 -6 89 -31 83 -55 -7 -24 18 -48 48 -48 14 0 29 -8 34
-19 9 -16 8 -18 -7 -15 -10 3 -22 -4 -30 -16 -10 -17 -10 -20 4 -20 8 0 12 5
9 10 -3 6 -1 10 4 10 6 0 11 -5 11 -11 0 -5 4 -8 9 -4 6 3 15 -3 20 -14 15
-26 14 -35 -1 -25 -7 5 -24 8 -38 7 -49 -4 -115 -12 -155 -18 -26 -3 -46 -1
-56 7 -19 16 -42 58 -35 65 5 5 55 -28 56 -38 0 -9 60 2 60 11 0 5 -10 17 -23
27 -13 10 -21 26 -19 36 3 15 0 18 -18 12 -19 -6 -21 -5 -11 13 16 30 14 32
-19 32 -36 0 -40 15 -5 24 14 4 25 14 25 22 0 11 -5 14 -16 10 -9 -3 -22 -6
-29 -6 -7 0 -31 -18 -52 -40 -44 -47 -74 -127 -66 -177 6 -36 26 -40 31 -6 2
12 10 24 17 27 17 6 44 -19 46 -42 3 -39 -4 -107 -11 -112 -5 -3 -11 -17 -15
-31 -5 -20 0 -33 19 -54 31 -33 31 -33 10 -56 -13 -14 -13 -21 -3 -37 10 -17
10 -23 -1 -36 -7 -9 -10 -20 -6 -23 4 -4 11 -1 15 6 5 8 11 9 15 3 3 -6 0 -12
-6 -15 -9 -2 3 -23 31 -57 24 -29 48 -69 52 -89 4 -20 13 -56 19 -80 6 -25 9
-54 7 -65 -3 -20 -4 -20 -15 4 -12 24 -12 24 -9 -8 2 -18 0 -35 -4 -37 -4 -3
-5 -14 -2 -24 3 -10 0 -22 -6 -25 -23 -15 -1 -96 26 -96 7 0 13 -7 13 -16 0
-21 58 -111 76 -118 31 -12 13 -26 -26 -20 -50 8 -52 -7 -5 -35 35 -20 46 -41
23 -41 -13 -1 20 -32 51 -49 12 -7 13 -12 3 -23 -6 -8 -13 -23 -15 -34 -11
-55 -41 -71 -68 -37 -13 15 -12 16 9 11 29 -8 28 6 -4 48 -22 28 -24 34 -9 34
21 0 15 19 -13 38 -21 14 -22 14 -18 -29 4 -40 3 -42 -10 -25 -13 19 -14 18
-14 -11 0 -17 6 -33 13 -36 8 -3 5 -10 -10 -22 -28 -20 -28 -25 -3 -53 17 -18
19 -26 10 -42 -10 -18 -8 -20 17 -20 20 0 24 -3 14 -9 -8 -5 -11 -16 -8 -24 5
-15 -32 -75 -74 -120 -17 -19 -31 -78 -20 -87 12 -10 41 -72 41 -89 0 -19 -45
-64 -74 -75 -18 -6 -18 -7 -1 -20 18 -13 18 -14 -3 -25 -13 -7 -20 -16 -17
-20 2 -5 -4 -11 -15 -14 -27 -7 -27 -47 -1 -47 11 0 23 5 26 10 10 16 35 12
35 -5 0 -9 7 -18 15 -21 11 -5 7 -12 -16 -31 -22 -19 -27 -29 -19 -38 8 -10 3
-21 -21 -44 -17 -18 -28 -35 -25 -38 12 -13 116 52 143 89 16 20 42 45 58 54
17 10 45 32 63 49 19 16 41 33 50 37 29 12 78 8 98 -7 18 -14 18 -14 -4 -15
-60 0 22 -60 90 -65 30 -2 47 -9 56 -24 13 -19 13 -21 -6 -21 -29 0 -37 -17
-12 -25 11 -3 26 -13 34 -20 14 -14 60 -19 125 -13 31 3 40 -3 58 -40 0 -2 10
2 22 9 11 7 24 9 28 5 4 -5 2 -11 -4 -13 -7 -3 -13 -19 -13 -36 1 -27 2 -29
11 -14 5 9 19 17 29 17 10 0 22 5 25 10 13 20 23 -1 30 -60 6 -51 4 -65 -14
-96 -26 -43 -26 -54 -3 -54 32 0 69 -65 63 -111 -1 -9 6 -19 15 -23 22 -8 31
1 16 16 -8 8 -7 19 6 41 13 24 14 31 4 35 -10 3 -8 10 9 28 18 20 25 22 38 11
10 -8 13 -9 8 0 -4 6 -3 14 3 18 5 3 10 17 10 31 0 13 5 24 11 24 8 0 9 -11 5
-32 -5 -27 -1 -37 26 -66 32 -33 32 -34 8 -27 -14 3 -20 3 -14 -2 17 -12 34
-49 34 -72 0 -12 -9 -38 -20 -58 -21 -40 -27 -83 -10 -83 6 0 10 6 10 13 1 21
30 -26 30 -48 0 -29 55 -79 113 -104 30 -13 54 -32 65 -51 21 -37 28 -37 47 0
11 21 33 38 69 54 64 29 116 81 116 118 0 15 5 30 10 33 6 3 10 1 10 -4 0 -16
17 -13 24 4 3 8 -7 40 -21 72 l-26 57 21 38 21 39 -22 -6 c-18 -5 -16 -1 11
22 27 23 32 36 34 73 1 37 2 39 5 13 2 -18 8 -33 14 -33 5 0 9 -8 9 -17 0 -14
2 -15 9 -5 7 11 13 9 29 -8 11 -12 18 -28 15 -35 -2 -8 1 -24 8 -36 11 -21 8
-26 -31 -61 -47 -43 -52 -62 -6 -23 37 32 58 32 54 3 -2 -14 -16 -29 -35 -39
-39 -20 -63 -38 -63 -50 0 -5 20 5 44 22 53 37 72 36 51 -4 -12 -24 -12 -27 3
-27 15 -1 15 -2 -1 -11 -9 -6 -15 -14 -12 -18 2 -5 -5 -12 -18 -16 -21 -8 -21
-8 5 -12 15 -2 28 -11 30 -19 2 -10 16 -3 46 25 44 40 55 65 25 54 -17 -6 -16
-5 1 15 10 11 28 23 40 25 17 3 15 5 -7 6 -15 0 -36 -5 -47 -11 -26 -16 -47 2
-32 27 7 13 4 23 -11 38 l-20 20 25 21 c14 12 34 27 44 34 10 7 4 5 -14 -4
-19 -8 -36 -13 -38 -11 -16 16 35 98 67 109 8 3 4 15 -10 38 -21 35 -28 80
-14 94 4 4 8 21 9 37 2 40 10 46 34 24 17 -16 21 -16 35 -2 8 9 12 23 9 31 -7
18 0 20 25 6 14 -7 21 -4 31 15 13 24 16 24 88 18 50 -4 73 -3 69 4 -4 6 12
16 35 23 38 11 40 13 22 23 -44 24 -39 47 10 47 18 0 59 13 90 28 31 16 56 25
56 20 0 -4 12 -8 26 -8 14 0 23 4 19 10 -3 5 -15 10 -26 10 -10 0 -19 5 -19
12 0 9 -3 9 -12 0 -7 -7 -21 -12 -32 -12 -18 0 -19 1 -1 20 23 25 76 26 116 3
16 -10 29 -20 29 -24 0 -3 19 -19 43 -35 23 -16 67 -54 98 -84 53 -54 113 -90
126 -76 4 3 1 12 -5 18 -17 17 -15 26 7 33 24 7 34 64 15 86 -13 14 -12 18 8
31 l22 15 -22 30 c-12 17 -20 38 -16 46 3 8 -5 23 -20 34 -17 14 -22 24 -16
34 7 11 14 9 36 -11 l27 -25 -7 25 c-4 14 -9 45 -12 70 -4 25 -15 59 -25 76
-25 41 -26 62 -1 43 15 -13 16 -12 4 3 -8 10 -11 26 -7 38 4 12 2 27 -4 34 -6
8 -18 40 -27 72 -8 32 -20 64 -25 71 -6 7 -9 19 -6 27 3 7 2 17 -3 22 -4 5
-16 54 -25 109 -9 55 -17 102 -18 105 0 3 3 16 7 29 5 15 4 26 -4 31 -9 5 -9
9 -1 14 14 9 14 26 0 26 -22 0 -40 29 -33 55 3 13 10 23 14 20 5 -3 12 5 16
17 3 13 14 34 23 48 19 27 25 70 11 70 -5 0 -7 7 -4 15 4 10 0 15 -13 15 -19
0 -19 3 -7 62 12 57 12 91 0 57 -21 -58 -27 -71 -32 -66 -14 14 13 85 50 131
77 96 95 129 116 221 16 68 19 106 14 160 -6 62 -5 68 9 55 18 -18 39 -79 31
-91 -3 -5 -1 -9 5 -9 5 0 12 -8 14 -17 14 -53 10 117 -5 246 -10 84 -14 98
-42 127 -34 36 -138 82 -173 76z m-2498 -182 c3 -5 1 -10 -4 -10 -6 0 -11 5
-11 10 0 6 2 10 4 10 3 0 8 -4 11 -10z m2265 -30 c0 -5 -5 -10 -11 -10 -5 0
-7 5 -4 10 3 6 8 10 11 10 2 0 4 -4 4 -10z m-1850 -56 c0 -11 -9 -14 -32 -12
-32 3 -53 28 -24 28 9 0 16 5 16 10 0 7 6 7 20 0 11 -6 20 -18 20 -26z m1730
26 c0 -5 -5 -10 -11 -10 -5 0 -7 5 -4 10 3 6 8 10 11 10 2 0 4 -4 4 -10z
m-2085 -10 c9 -14 64 -42 100 -51 l30 -7 -33 -1 c-34 -1 -108 35 -117 57 -5
14 11 16 20 2z m2189 4 c30 -12 18 -34 -19 -34 -37 0 -43 8 -23 28 14 14 20
14 42 6z m317 -18 c-19 -23 -77 -46 -113 -45 l-33 1 30 7 c38 9 103 40 111 53
3 5 8 7 11 4 3 -3 1 -12 -6 -20z m74 7 c-4 -10 -11 -35 -15 -56 -11 -56 -20
-57 -20 -1 0 47 12 74 33 74 5 0 6 -8 2 -17z m-2425 -23 c0 -5 -2 -10 -4 -10
-3 0 -8 5 -11 10 -3 6 -1 10 4 10 6 0 11 -4 11 -10z m2210 0 c-19 -13 -30 -13
-30 0 0 6 10 10 23 10 18 0 19 -2 7 -10z m-323 -26 c-3 -3 -12 -4 -19 -1 -8 3
-5 6 6 6 11 1 17 -2 13 -5z m-47 -44 c0 -5 -2 -10 -4 -10 -3 0 -8 5 -11 10 -3
6 -1 10 4 10 6 0 11 -4 11 -10z m590 -109 c0 -12 -20 -25 -27 -18 -7 7 6 27
18 27 5 0 9 -4 9 -9z m-2552 -132 c-2 -7 -14 3 -25 21 -12 19 -19 38 -16 43 7
12 46 -49 41 -64z m658 -21 c5 -29 3 -35 -12 -35 -22 0 -54 25 -54 43 0 8 8
10 22 6 16 -4 20 -2 15 10 -3 9 -3 19 1 22 10 11 22 -9 28 -46z m1144 26 c0
-23 2 -25 15 -14 21 18 26 9 12 -20 -16 -31 -67 -38 -67 -9 0 24 21 69 32 69
4 0 8 -12 8 -26z m-979 -50 c-12 -34 -17 -40 -19 -24 -4 26 17 82 28 75 4 -3
0 -25 -9 -51z m798 8 c5 -18 6 -32 2 -32 -10 0 -31 46 -31 67 0 25 19 3 29
-35z m-102 16 c-3 -8 -6 -5 -6 6 -1 11 2 17 5 13 3 -3 4 -12 1 -19z m-687
-108 c0 -5 -2 -10 -4 -10 -3 0 -8 5 -11 10 -3 6 -1 10 4 10 6 0 11 -4 11 -10z
m140 -60 c0 -5 -2 -10 -4 -10 -3 0 -8 5 -11 10 -3 6 -1 10 4 10 6 0 11 -4 11
-10z m-468 -183 c48 -35 42 -43 -36 -42 -39 0 -77 4 -83 8 -20 13 -15 29 7 22
24 -8 60 11 60 31 0 16 6 14 52 -19z m1473 6 c7 -9 26 -16 44 -16 34 0 40 -11
13 -26 -20 -11 -142 -10 -142 1 0 10 53 58 64 58 5 0 14 -7 21 -17z m32 11
c-3 -3 -12 -4 -19 -1 -8 3 -5 6 6 6 11 1 17 -2 13 -5z m-792 -22 c-3 -3 -11 0
-18 7 -9 10 -8 11 6 5 10 -3 15 -9 12 -12z m73 -17 c17 -19 27 -37 22 -40 -6
-3 -10 -1 -10 5 0 7 -6 10 -14 7 -8 -3 -19 8 -29 29 -21 44 -9 43 31 -1z
m-1192 -22 c-10 -10 -19 5 -10 18 6 11 8 11 12 0 2 -7 1 -15 -2 -18z m381 -62
c-6 -9 -18 -20 -24 -24 -20 -13 -15 -35 9 -43 21 -6 21 -7 3 -20 -41 -30 -101
-12 -142 44 l-21 28 57 -2 c31 -2 46 0 34 2 -12 3 -26 11 -31 17 -8 9 7 12 59
13 61 0 67 -1 56 -15z m1586 6 c-3 -5 -15 -13 -27 -18 -16 -7 -9 -8 30 -6 l51
2 -21 -32 c-31 -48 -96 -69 -135 -44 -12 8 -12 12 2 26 21 20 22 45 3 45 -7 0
-16 8 -18 18 -5 17 1 19 57 18 35 -1 61 -5 58 -9z m-1718 -115 c-3 -3 -16 5
-28 17 l-22 23 28 -17 c15 -10 25 -20 22 -23z m1765 19 c0 -5 -7 -12 -16 -15
-14 -5 -15 -4 -4 9 14 17 20 19 20 6z m-1768 -177 c35 -6 54 -26 42 -45 -13
-22 -85 3 -120 42 l-19 22 30 -7 c17 -3 47 -9 67 -12z m1828 10 c0 -13 -51
-54 -75 -60 -31 -8 -65 4 -65 21 0 8 17 19 38 24 84 21 102 24 102 15z m153
-36 c-5 -7 -13 -21 -16 -30 -5 -13 -2 -15 11 -11 15 6 16 5 2 -12 -8 -11 -23
-29 -34 -40 l-18 -20 10 20 c6 11 8 32 5 46 -3 19 2 33 18 48 23 22 39 21 22
-1z m-53 -28 c0 -5 -5 -10 -11 -10 -5 0 -7 5 -4 10 3 6 8 10 11 10 2 0 4 -4 4
-10z m-1880 -200 c0 -5 -4 -10 -9 -10 -6 0 -13 5 -16 10 -3 6 1 10 9 10 9 0
16 -4 16 -10z m1670 6 c0 -3 -4 -8 -10 -11 -5 -3 -10 -1 -10 4 0 6 5 11 10 11
6 0 10 -2 10 -4z m-1270 -96 c0 -5 -2 -10 -4 -10 -3 0 -8 5 -11 10 -3 6 -1 10
4 10 6 0 11 -4 11 -10z m930 -110 c0 -5 -5 -10 -11 -10 -5 0 -7 5 -4 10 3 6 8
10 11 10 2 0 4 -4 4 -10z m-45 -20 c3 -5 1 -10 -4 -10 -6 0 -11 5 -11 10 0 6
2 10 4 10 3 0 8 -4 11 -10z m839 -65 c7 -28 6 -29 -7 -10 -19 27 -27 52 -19
59 7 8 17 -10 26 -49z m-2460 18 c-8 -34 -24 -54 -24 -30 0 15 20 57 28 57 1
0 -1 -12 -4 -27z m506 -61 c0 -15 -2 -15 -10 -2 -13 20 -13 33 0 25 6 -3 10
-14 10 -23z m134 -42 c15 -5 45 -10 66 -10 21 0 42 -4 45 -10 7 -11 -45 -13
-95 -4 -33 7 -100 63 -100 84 0 7 13 -2 29 -19 16 -17 41 -35 55 -41z m1177
37 c-8 -8 -11 -7 -11 4 0 20 13 34 18 19 3 -7 -1 -17 -7 -23z m-73 1 c-27 -41
-65 -61 -123 -66 -37 -3 -55 -1 -55 7 0 6 17 11 40 11 49 0 98 19 124 49 25
27 32 27 14 -1z m-1704 -34 c3 -8 2 -13 -3 -10 -5 3 -11 -3 -14 -14 -3 -11 -1
-18 4 -14 5 3 6 -2 3 -10 -3 -9 -10 -16 -15 -16 -5 0 -9 -6 -9 -14 0 -15 -65
-76 -81 -76 -6 0 2 13 17 29 15 16 33 49 41 72 8 24 22 50 31 57 20 15 19 15
26 -4z m2276 -30 c0 -8 -4 -12 -10 -9 -5 3 -10 10 -10 16 0 5 5 9 10 9 6 0 10
-7 10 -16z m20 -50 c0 -8 -4 -14 -10 -14 -5 0 -10 9 -10 21 0 11 5 17 10 14 6
-3 10 -13 10 -21z m-1622 4 c20 1 31 -2 27 -8 -7 -11 -57 -13 -92 -4 -13 4
-20 10 -17 16 3 5 15 5 27 1 12 -4 37 -6 55 -5z m1002 3 c0 -10 -58 -21 -113
-21 -22 0 -36 4 -32 10 3 5 21 9 40 8 19 -1 38 2 42 5 10 10 63 8 63 -2z
m-1325 -21 c3 -5 2 -10 -4 -10 -5 0 -13 5 -16 10 -3 6 -2 10 4 10 5 0 13 -4
16 -10z m1520 -30 c-24 -26 -32 -18 -9 9 10 11 20 18 23 16 2 -3 -4 -14 -14
-25z m-1475 -20 c0 -5 -2 -10 -4 -10 -3 0 -8 5 -11 10 -3 6 -1 10 4 10 6 0 11
-4 11 -10z m746 -337 c16 -22 18 -65 3 -80 -6 -6 -9 -19 -6 -29 4 -17 6 -17
12 4 4 12 11 22 16 22 5 0 9 8 9 18 1 17 22 52 33 52 3 0 1 -12 -6 -27 -22
-51 -51 -93 -64 -93 -7 0 -13 -4 -13 -10 0 -5 -4 -10 -8 -10 -4 0 -16 30 -26
67 l-18 67 22 18 c27 22 30 22 46 1z m-365 -20 c-12 -20 -14 -14 -5 12 4 9 9
14 11 11 3 -2 0 -13 -6 -23z m283 -39 c25 -62 15 -65 -18 -4 -19 34 -23 50
-14 50 7 0 21 -21 32 -46z m-37 -71 c22 -49 24 -73 4 -73 -7 0 -36 77 -58 150
-9 30 29 -25 54 -77z m228 25 c-13 -35 -26 -71 -29 -81 -9 -28 -29 -8 -23 23
6 30 58 120 69 120 3 0 -4 -28 -17 -62z m-158 -30 c-3 -8 -6 -5 -6 6 -1 11 2
17 5 13 3 -3 4 -12 1 -19z m-117 -72 c0 -3 -4 -8 -10 -11 -5 -3 -10 -1 -10 4
0 6 5 11 10 11 6 0 10 -2 10 -4z m300 -6 c0 -5 -2 -10 -4 -10 -3 0 -8 5 -11
10 -3 6 -1 10 4 10 6 0 11 -4 11 -10z m-124 -12 c7 -11 -66 -9 -91 2 -14 6 -4
8 33 7 30 -1 56 -5 58 -9z m-26 -88 c0 -5 -4 -10 -10 -10 -5 0 -10 5 -10 10 0
6 5 10 10 10 6 0 10 -4 10 -10z"/>
<path d="M843 3643 c-25 -5 -32 -23 -9 -23 8 0 28 -11 44 -25 35 -29 75 -37
48 -9 -9 8 -14 19 -11 24 3 4 -2 13 -10 20 -13 11 -14 10 -9 -4 8 -20 -9 -21
-25 -2 -9 11 -9 15 1 19 15 6 3 6 -29 0z"/>
<path d="M660 3396 c0 -15 18 -31 26 -23 7 7 -7 37 -17 37 -5 0 -9 -6 -9 -14z"/>
<path d="M3401 3254 c0 -11 3 -14 6 -6 3 7 2 16 -1 19 -3 4 -6 -2 -5 -13z"/>
<path d="M3387 3213 c-4 -3 -7 -16 -6 -27 0 -19 1 -19 10 3 10 24 8 36 -4 24z"/>
<path d="M3311 3027 c-24 -50 -46 -115 -50 -144 -4 -28 -13 -59 -20 -67 -9
-11 -10 -16 -2 -16 6 0 11 1 11 3 0 4 55 154 88 240 17 42 27 77 23 77 -3 0
-26 -42 -50 -93z"/>
<path d="M1105 3061 c-18 -7 -18 -9 7 -25 21 -13 31 -15 47 -7 11 6 31 11 45
11 14 0 27 4 30 9 12 19 -88 28 -129 12z"/>
<path d="M2783 3063 c-22 -8 -14 -23 13 -23 14 0 34 -5 45 -11 26 -13 81 17
58 32 -15 9 -95 11 -116 2z"/>
<path d="M1050 3052 c0 -14 39 -46 47 -39 3 4 -2 16 -12 27 -19 21 -35 26 -35
12z"/>
<path d="M1150 3000 c0 -5 10 -10 23 -10 18 0 19 2 7 10 -19 13 -30 13 -30 0z"/>
<path d="M2825 3000 c-19 -8 -19 -9 2 -9 12 -1 25 4 28 9 7 12 -2 12 -30 0z"/>
<path d="M2160 2891 c0 -5 7 -14 15 -21 16 -14 18 -10 9 14 -6 17 -24 22 -24
7z"/>
<path d="M1845 2830 c-3 -5 -1 -10 4 -10 6 0 11 5 11 10 0 6 -2 10 -4 10 -3 0
-8 -4 -11 -10z"/>
<path d="M1852 2801 c-11 -7 -11 -9 2 -14 10 -4 16 -1 16 8 0 17 -1 17 -18 6z"/>
<path d="M2345 2800 c3 -5 11 -10 16 -10 6 0 7 5 4 10 -3 6 -11 10 -16 10 -6
0 -7 -4 -4 -10z"/>
<path d="M1749 2767 c-20 -13 -38 -36 -44 -55 -9 -33 -35 -45 -35 -16 0 11 -6
15 -20 11 -16 -4 -18 -2 -10 13 15 28 -6 35 -24 8 -12 -17 -13 -25 -3 -36 9
-12 9 -16 0 -19 -18 -6 31 -67 91 -115 51 -41 65 -43 46 -9 -6 12 -7 21 -1 21
5 0 7 9 4 20 -3 11 -1 20 4 20 4 0 8 17 6 38 -1 32 5 43 42 80 l44 43 -25 9
c-34 13 -36 13 -75 -13z"/>
<path d="M1955 2740 c3 -5 8 -10 11 -10 2 0 4 5 4 10 0 6 -5 10 -11 10 -5 0
-7 -4 -4 -10z"/>
<path d="M1858 2693 c7 -3 16 -2 19 1 4 3 -2 6 -13 5 -11 0 -14 -3 -6 -6z"/>
<path d="M1837 2657 c3 -5 -6 -20 -21 -32 -22 -17 -26 -27 -21 -48 4 -15 11
-24 16 -21 5 3 6 16 3 30 -4 16 -2 24 7 24 8 0 22 11 31 24 17 23 16 24 -2 29
-13 3 -18 1 -13 -6z"/>
<path d="M1919 2573 l-24 -28 28 24 c25 23 32 31 24 31 -2 0 -14 -12 -28 -27z"/>
<path d="M1811 2524 c0 -11 3 -14 6 -6 3 7 2 16 -1 19 -3 4 -6 -2 -5 -13z"/>
<path d="M1685 2510 c-3 -5 -1 -10 4 -10 6 0 11 5 11 10 0 6 -2 10 -4 10 -3 0
-8 -4 -11 -10z"/>
<path d="M2481 2384 c0 -11 3 -14 6 -6 3 7 2 16 -1 19 -3 4 -6 -2 -5 -13z"/>
<path d="M2070 2357 c-8 -7 -24 -23 -35 -36 l-20 -25 27 20 c14 10 31 27 37
37 13 20 11 21 -9 4z"/>
<path d="M2457 2296 c-3 -8 -19 -18 -34 -22 -37 -9 -50 -20 -78 -68 -49 -86
-42 -94 27 -32 78 69 114 114 100 128 -6 6 -11 4 -15 -6z"/>
<path d="M1990 2290 c0 -5 5 -10 10 -10 6 0 10 5 10 10 0 6 -4 10 -10 10 -5 0
-10 -4 -10 -10z"/>
<path d="M1545 2270 c3 -5 8 -10 11 -10 2 0 4 5 4 10 0 6 -5 10 -11 10 -5 0
-7 -4 -4 -10z"/>
<path d="M2322 2240 c-7 -12 -18 -17 -29 -14 -12 4 -14 3 -6 -3 8 -6 8 -13 -3
-27 -8 -11 -14 -14 -14 -8 0 7 -7 12 -15 12 -8 0 -15 -4 -15 -10 0 -5 5 -10
11 -10 6 0 8 -8 5 -18 -4 -10 0 -27 8 -37 13 -18 14 -17 14 8 0 18 15 46 41
77 23 28 36 50 29 50 -7 0 -19 -9 -26 -20z"/>
<path d="M1440 2228 c0 -6 -11 -7 -25 -4 -14 4 -25 5 -25 2 0 -6 96 -36 116
-36 16 0 16 1 0 19 -19 21 -66 34 -66 19z"/>
<path d="M1625 2186 c33 -30 61 -53 63 -51 5 4 -37 70 -43 68 -13 -7 -19 -2
-7 6 10 6 10 10 -3 21 -13 11 -15 10 -9 -4 8 -20 -3 -21 -22 -1 -9 8 -21 15
-27 15 -6 0 16 -24 48 -54z"/>
<path d="M1730 2212 c0 -6 5 -12 12 -14 9 -3 9 -6 1 -11 -6 -4 -18 0 -26 8
-25 25 -30 17 -8 -12 12 -15 19 -34 16 -44 -11 -35 11 -26 27 11 15 37 15 40
-3 56 -10 9 -19 12 -19 6z"/>
<path d="M1891 2204 c0 -11 3 -14 6 -6 3 7 2 16 -1 19 -3 4 -6 -2 -5 -13z"/>
<path d="M2100 2210 c0 -5 5 -10 10 -10 6 0 10 5 10 10 0 6 -4 10 -10 10 -5 0
-10 -4 -10 -10z"/>
<path d="M2386 2163 c-6 -14 -5 -15 5 -6 7 7 10 15 7 18 -3 3 -9 -2 -12 -12z"/>
<path d="M1768 2130 c-7 -24 -3 -38 8 -28 3 4 4 17 2 30 l-3 23 -7 -25z"/>
<path d="M2220 2133 c0 -4 5 -15 10 -23 8 -13 10 -13 10 2 0 9 -4 20 -10 23
-5 3 -10 3 -10 -2z"/>
<path d="M785 2109 c-11 -17 1 -21 15 -4 8 9 8 15 2 15 -6 0 -14 -5 -17 -11z"/>
<path d="M737 2074 c-8 -8 1 -24 13 -24 4 0 10 7 14 15 5 15 -14 21 -27 9z"/>
<path d="M1812 2007 c-12 -34 -26 -89 -31 -122 -15 -87 -20 -235 -8 -235 6 0
25 11 43 25 35 27 55 85 36 108 -5 6 -17 36 -25 64 -15 49 -15 56 3 95 27 65
33 103 17 116 -11 9 -18 0 -35 -51z"/>
<path d="M2153 2058 c-11 -18 -4 -56 20 -111 20 -48 20 -50 2 -100 -10 -29
-22 -56 -26 -62 -12 -12 -11 -39 2 -67 9 -21 66 -68 82 -68 12 0 -3 222 -19
290 -14 62 -40 130 -49 130 -2 0 -7 -6 -12 -12z"/>
<path d="M3000 2051 c0 -6 4 -13 10 -16 6 -3 7 1 4 9 -7 18 -14 21 -14 7z"/>
<path d="M985 2040 c-3 -6 1 -7 9 -4 18 7 21 14 7 14 -6 0 -13 -4 -16 -10z"/>
<path d="M976 1637 c-22 -12 -42 -28 -44 -35 -2 -8 13 -3 37 13 23 14 46 23
50 20 5 -2 14 2 21 10 19 23 -16 18 -64 -8z"/>
<path d="M3010 1641 c0 -14 60 -55 68 -47 3 4 -7 18 -23 31 -32 26 -45 31 -45
16z"/>
<path d="M1053 1568 c-13 -6 -23 -15 -23 -21 0 -5 5 -5 13 1 7 6 24 16 38 21
13 5 17 10 9 10 -8 0 -25 -5 -37 -11z"/>
<path d="M2915 1573 c11 -3 24 -9 30 -14 5 -5 13 -9 19 -9 5 0 1 7 -10 15 -10
8 -28 14 -39 14 l-20 -1 20 -5z"/>
<path d="M3150 1497 c0 -33 122 -109 142 -89 9 9 2 15 -23 26 -19 8 -53 28
-76 45 -27 20 -43 26 -43 18z"/>
<path d="M814 1482 c-10 -9 -38 -26 -62 -36 -69 -31 -87 -70 -21 -47 35 12
119 77 119 92 0 14 -14 11 -36 -9z"/>
<path d="M3120 1439 c0 -16 60 -93 67 -85 7 7 -23 59 -46 80 -16 15 -21 16
-21 5z"/>
<path d="M837 1403 c-35 -51 -78 -136 -70 -143 3 -3 9 2 14 10 66 109 90 153
87 161 -2 6 -16 -7 -31 -28z"/>
<path d="M736 1344 c-9 -9 -14 -19 -11 -22 3 -3 13 2 22 11 9 9 14 19 11 22
-3 3 -13 -2 -22 -11z"/>
<path d="M925 1330 c-10 -11 -16 -23 -13 -26 7 -6 38 24 38 37 0 13 -5 11 -25
-11z"/>
<path d="M3057 1331 c3 -11 11 -22 19 -25 17 -7 17 4 0 27 -17 22 -25 22 -19
-2z"/>
<path d="M836 1280 c-31 -57 -25 -62 21 -22 25 20 31 33 27 50 -9 33 -18 28
-48 -28z"/>
<path d="M3120 1307 c0 -25 25 -55 37 -43 10 9 -10 59 -24 64 -8 2 -13 -6 -13
-21z"/>
<path d="M997 1294 c-4 -4 -7 -17 -7 -28 1 -19 1 -20 11 -3 11 19 8 43 -4 31z"/>
<path d="M2990 1293 c0 -5 5 -15 10 -23 8 -12 10 -11 10 8 0 12 -4 22 -10 22
-5 0 -10 -3 -10 -7z"/>
<path d="M945 1259 c-4 -6 -5 -13 -2 -16 7 -7 27 6 27 18 0 12 -17 12 -25 -2z"/>
<path d="M3040 1255 c7 -8 17 -15 22 -15 6 0 5 7 -2 15 -7 8 -17 15 -22 15 -6
0 -5 -7 2 -15z"/>
<path d="M1402 1214 c11 -11 99 -33 93 -24 -4 6 -15 10 -25 10 -10 0 -22 5
-25 10 -3 6 -16 10 -27 10 -12 0 -19 -3 -16 -6z"/>
<path d="M846 1164 c-5 -12 -2 -15 10 -10 8 3 18 6 20 6 2 0 4 5 4 10 0 16
-27 11 -34 -6z"/>
<path d="M2478 1163 c7 -3 16 -2 19 1 4 3 -2 6 -13 5 -11 0 -14 -3 -6 -6z"/>
<path d="M1240 1130 c-14 -9 -7 -15 14 -11 37 8 171 -1 219 -14 68 -18 67 -17
67 -7 0 5 -12 15 -27 22 -35 16 -252 24 -273 10z"/>
<path d="M2708 1133 c-10 -2 -18 -9 -18 -14 0 -15 43 -7 48 9 4 12 0 13 -30 5z"/>
<path d="M2548 1115 c-57 -12 -133 -45 -103 -45 25 0 185 45 185 52 0 9 3 10
-82 -7z"/>
<path d="M2640 1120 c0 -5 6 -10 14 -10 8 0 18 5 21 10 3 6 -3 10 -14 10 -12
0 -21 -4 -21 -10z"/>
<path d="M2833 1113 c9 -2 23 -2 30 0 6 3 -1 5 -18 5 -16 0 -22 -2 -12 -5z"/>
<path d="M1053 1094 c-18 -8 -33 -16 -33 -19 0 -7 64 7 77 17 7 5 16 7 21 5 4
-3 14 -2 22 4 25 15 -51 9 -87 -7z"/>
<path d="M2908 1103 c7 -3 16 -2 19 1 4 3 -2 6 -13 5 -11 0 -14 -3 -6 -6z"/>
<path d="M1270 1080 c-8 -5 -11 -12 -7 -16 4 -4 13 -2 19 4 15 15 7 24 -12 12z"/>
<path d="M2710 1086 c0 -2 7 -9 15 -16 9 -7 15 -8 15 -2 0 5 -7 12 -15 16 -8
3 -15 4 -15 2z"/>
<path d="M1360 1064 c-105 -23 -180 -47 -180 -56 0 -5 4 -6 10 -3 43 26 261
55 283 37 7 -5 30 -13 52 -16 36 -7 38 -6 20 7 -11 8 -37 17 -57 21 -21 4 -38
11 -38 16 0 12 -7 11 -90 -6z"/>
<path d="M1613 1073 c-7 -2 -13 -16 -13 -29 0 -13 -5 -24 -11 -24 -8 0 -8 -4
0 -14 9 -11 9 -16 0 -21 -6 -4 -14 -2 -18 4 -10 15 -41 3 -41 -15 0 -8 -4 -14
-9 -14 -8 0 -62 -23 -115 -48 -4 -3 -5 6 -2 19 7 23 6 23 -8 5 -9 -10 -13 -22
-11 -26 3 -5 -2 -10 -10 -14 -8 -3 -15 -10 -15 -15 0 -6 21 1 46 14 26 14 56
25 66 25 19 0 19 -1 -2 -27 -16 -21 -18 -29 -8 -32 7 -2 16 -9 20 -15 4 -6 23
-11 43 -13 20 -1 42 -6 48 -12 7 -5 29 -12 50 -16 20 -4 37 -11 37 -16 0 -5 5
-9 11 -9 11 0 10 6 -7 67 -4 13 -1 23 8 26 7 2 3 2 -9 1 -31 -6 -37 12 -11 30
19 13 19 16 5 22 -9 3 -15 10 -12 14 3 4 -1 23 -9 41 -7 19 -13 49 -11 67 1
17 1 32 1 31 -1 0 -7 -3 -13 -6z"/>
<path d="M2564 1065 c11 -8 24 -15 30 -15 5 0 1 7 -10 15 -10 8 -23 14 -29 14
-5 0 -1 -6 9 -14z"/>
<path d="M1686 1055 c4 -8 10 -15 15 -15 4 0 6 7 3 15 -4 8 -10 15 -15 15 -4
0 -6 -7 -3 -15z"/>
<path d="M2625 1030 c3 -5 29 -10 57 -10 64 0 60 5 -10 14 -37 5 -52 4 -47 -4z"/>
<path d="M2528 1023 c7 -3 16 -2 19 1 4 3 -2 6 -13 5 -11 0 -14 -3 -6 -6z"/>
<path d="M1742 758 c2 -6 14 -15 26 -19 16 -6 20 -5 16 6 -6 16 -47 29 -42 13z"/>
<path d="M1805 729 c-12 -19 5 -23 22 -6 16 16 16 17 1 17 -9 0 -20 -5 -23
-11z"/>
<path d="M1897 732 c-20 -2 -35 -7 -32 -13 8 -12 265 -12 265 1 0 6 -12 10
-27 11 -141 3 -173 4 -206 1z"/>
</g>
</svg>
